<svg xmlns="http://www.w3.org/2000/svg" viewBox="0 0 512 512" fill="none">
  <rect width="512" height="512" rx="112" fill="#059669"/>
  <path d="M152 256a104 104 0 0 1 104-104c34.3 0 64.7 16.6 83.7 42.3" stroke="#ffffff" stroke-width="36" stroke-linecap="round"/>
  <path fill-rule="evenodd" clip-rule="evenodd"
    d="M160 192c0-52.9 43.1-96 96-96s96 43.1 96 96c0 33.3-17 62.6-43 79.8L340 384H172l31-112.2C177 254.6 160 225.3 160 192z"
    fill="none"/>
  <path d="M136.6 228.6a4.5 4.5 0 0 1 0-6.36L256 102.9l119.4 119.4a4.5 4.5 0 0 1-6.36 6.36L256 115.6 142.96 228.6a4.5 4.5 0 0 1-6.36 0z"
    fill="white" opacity="0"/>
  <!-- Heart icon -->
  <path d="M174.3 214.3a58.5 58.5 0 0 1 0-82.6 57.5 57.5 0 0 1 81.7 0 57.5 57.5 0 0 1 81.7 0 58.5 58.5 0 0 1 0 82.6L256 296 174.3 214.3z"
    fill="white"/>
</svg>
